<svg width="10" height="9" viewBox="0 0 10 9" fill="none" xmlns="http://www.w3.org/2000/svg">
                                                <path d="M8.89008 8.02759H8.54702V1.16631C8.54702 1.07532 8.51087 0.98806 8.44653 0.923723C8.3822 0.859386 8.29494 0.823242 8.20395 0.823242L5.8025 0.823242C5.71152 0.823242 5.62426 0.859386 5.55992 0.923723C5.49558 0.98806 5.45944 1.07532 5.45944 1.16631V2.88163H3.40105C3.31007 2.88163 3.22281 2.91777 3.15847 2.98211C3.09413 3.04645 3.05799 3.1337 3.05799 3.22469V4.94001H1.34267C1.25168 4.94001 1.16442 4.97616 1.10009 5.04049C1.03575 5.10483 0.999605 5.19209 0.999605 5.28308L0.999605 8.02759H0.656541C0.565554 8.02759 0.478295 8.06373 0.413958 8.12807C0.349621 8.19241 0.313477 8.27967 0.313477 8.37065C0.313477 8.46164 0.349621 8.5489 0.413958 8.61324C0.478295 8.67757 0.565554 8.71372 0.656541 8.71372H8.89008C8.98107 8.71372 9.06833 8.67757 9.13266 8.61324C9.197 8.5489 9.23314 8.46164 9.23314 8.37065C9.23314 8.27967 9.197 8.19241 9.13266 8.12807C9.06833 8.06373 8.98107 8.02759 8.89008 8.02759ZM6.14557 1.50937L7.86089 1.50937V8.02759H6.14557V1.50937ZM3.74412 3.56776H5.45944V8.02759H3.74412L3.74412 3.56776ZM1.68573 5.62614H3.05799L3.05799 8.02759H1.68573V5.62614Z" fill="#0066FF" />
                                            </svg>