<svg viewBox="0 0 30 31" fill="none" xmlns="http://www.w3.org/2000/svg">
    <path d="M15 0.875C12.1075 0.875 9.27986 1.73274 6.87479 3.33976C4.46972 4.94677 2.5952 7.23089 1.48827 9.90325C0.381337 12.5756 0.091713 15.5162 0.656022 18.3532C1.22033 21.1902 2.61323 23.7961 4.65857 25.8414C6.70391 27.8868 9.30984 29.2797 12.1468 29.844C14.9838 30.4083 17.9244 30.1187 20.5968 29.0117C23.2691 27.9048 25.5532 26.0303 27.1602 23.6252C28.7673 21.2201 29.625 18.3926 29.625 15.5C29.6209 11.6225 28.0788 7.90492 25.3369 5.16309C22.5951 2.42125 18.8775 0.879095 15 0.875ZM21.4209 12.9209L13.5459 20.7959C13.4415 20.9005 13.3174 20.9835 13.1808 21.0401C13.0442 21.0967 12.8978 21.1259 12.75 21.1259C12.6022 21.1259 12.4558 21.0967 12.3192 21.0401C12.1826 20.9835 12.0586 20.9005 11.9541 20.7959L8.57907 17.4209C8.36797 17.2098 8.24938 16.9235 8.24938 16.625C8.24938 16.3265 8.36797 16.0402 8.57907 15.8291C8.79016 15.618 9.07647 15.4994 9.37501 15.4994C9.67354 15.4994 9.95985 15.618 10.1709 15.8291L12.75 18.4095L19.8291 11.3291C19.9336 11.2245 20.0577 11.1416 20.1942 11.0851C20.3308 11.0285 20.4772 10.9994 20.625 10.9994C20.7728 10.9994 20.9192 11.0285 21.0558 11.0851C21.1923 11.1416 21.3164 11.2245 21.4209 11.3291C21.5255 11.4336 21.6084 11.5577 21.6649 11.6942C21.7215 11.8308 21.7506 11.9772 21.7506 12.125C21.7506 12.2728 21.7215 12.4192 21.6649 12.5558C21.6084 12.6923 21.5255 12.8164 21.4209 12.9209Z" fill="#6D39F3" />
</svg>