<svg width="24" height="26" viewBox="0 0 24 26" fill="none" xmlns="http://www.w3.org/2000/svg">
        <path d="M23.7075 7.2925L16.7075 0.2925C16.6146 0.199666 16.5042 0.126052 16.3829 0.0758639C16.2615 0.0256758 16.1314 -0.000102986 16 3.09198e-07H4C3.46957 3.09198e-07 2.96086 0.210714 2.58579 0.585787C2.21071 0.960859 2 1.46957 2 2V13C2 13.2652 2.10536 13.5196 2.29289 13.7071C2.48043 13.8946 2.73478 14 3 14C3.26522 14 3.51957 13.8946 3.70711 13.7071C3.89464 13.5196 4 13.2652 4 13V2H15V8C15 8.26522 15.1054 8.51957 15.2929 8.70711C15.4804 8.89464 15.7348 9 16 9H22V24H19C18.7348 24 18.4804 24.1054 18.2929 24.2929C18.1054 24.4804 18 24.7348 18 25C18 25.2652 18.1054 25.5196 18.2929 25.7071C18.4804 25.8946 18.7348 26 19 26H22C22.5304 26 23.0391 25.7893 23.4142 25.4142C23.7893 25.0391 24 24.5304 24 24V8C24.0001 7.86864 23.9743 7.73855 23.9241 7.61715C23.8739 7.49576 23.8003 7.38544 23.7075 7.2925ZM17 3.41375L20.5863 7H17V3.41375ZM10.5 13C9.21674 13 7.96219 13.3798 6.89445 14.0917C5.82671 14.8035 4.99356 15.8154 4.5 17C3.30653 17 2.16193 17.4741 1.31802 18.318C0.474105 19.1619 0 20.3065 0 21.5C0 22.6935 0.474105 23.8381 1.31802 24.682C2.16193 25.5259 3.30653 26 4.5 26H10.5C12.2239 26 13.8772 25.3152 15.0962 24.0962C16.3152 22.8772 17 21.2239 17 19.5C17 17.7761 16.3152 16.1228 15.0962 14.9038C13.8772 13.6848 12.2239 13 10.5 13ZM10.5 24H4.5C3.87767 24.001 3.27733 23.7699 2.81636 23.3518C2.3554 22.9337 2.06694 22.3587 2.0074 21.7392C1.94786 21.1197 2.12151 20.5003 2.4944 20.002C2.8673 19.5038 3.41262 19.1625 4.02375 19.045C4.01778 19.3102 4.11742 19.5669 4.30073 19.7587C4.48405 19.9505 4.73603 20.0615 5.00125 20.0675C5.26647 20.0735 5.52319 19.9738 5.71495 19.7905C5.9067 19.6072 6.01778 19.3552 6.02375 19.09C6.04717 18.8331 6.09148 18.5785 6.15625 18.3288C6.17034 18.2879 6.18162 18.2461 6.19 18.2038C6.43026 17.405 6.88777 16.6888 7.51146 16.135C8.13515 15.5812 8.90048 15.2117 9.72201 15.0676C10.5435 14.9236 11.3889 15.0107 12.1638 15.3192C12.9388 15.6277 13.6127 16.1455 14.1104 16.8148C14.608 17.4842 14.9099 18.2786 14.9823 19.1095C15.0547 19.9405 14.8947 20.7751 14.5202 21.5204C14.1457 22.2657 13.5715 22.8922 12.8616 23.3301C12.1517 23.7679 11.3341 23.9999 10.5 24Z" fill="black"/>
        </svg>