<svg width="12" height="12" viewBox="0 0 12 12" fill="none" xmlns="http://www.w3.org/2000/svg">
                                                <path d="M11.1838 3.84286C11.1064 3.77539 11.0107 3.73243 10.9089 3.71945C10.807 3.70647 10.7036 3.72405 10.6118 3.76996L8.4586 4.84204L6.66094 1.85609C6.61473 1.77947 6.54951 1.71609 6.47159 1.6721C6.39368 1.6281 6.30572 1.60498 6.21624 1.60498C6.12677 1.60498 6.03881 1.6281 5.96089 1.6721C5.88298 1.71609 5.81776 1.77947 5.77155 1.85609L3.97389 4.84332L1.82159 3.77125C1.72997 3.72575 1.62695 3.70832 1.52545 3.72115C1.42396 3.73399 1.32852 3.77651 1.25111 3.84339C1.1737 3.91026 1.11776 3.99852 1.09032 4.09707C1.06288 4.19562 1.06516 4.30008 1.09687 4.39734L2.68354 9.25856C2.69949 9.3074 2.72621 9.35203 2.76172 9.38916C2.79723 9.42628 2.84063 9.45496 2.88871 9.47307C2.93679 9.49119 2.98832 9.49827 3.0395 9.4938C3.09068 9.48933 3.1402 9.47342 3.18441 9.44725C3.19514 9.44081 4.29165 8.80915 6.21624 8.80915C8.14083 8.80915 9.23735 9.44081 9.24722 9.44682C9.29144 9.47324 9.34105 9.48937 9.39236 9.49399C9.44367 9.49862 9.49536 9.49163 9.54361 9.47355C9.59185 9.45546 9.63539 9.42675 9.67102 9.38953C9.70664 9.35231 9.73342 9.30755 9.74938 9.25856L11.336 4.39863C11.3687 4.30134 11.3716 4.19655 11.3445 4.09758C11.3174 3.99861 11.2615 3.90995 11.1838 3.84286ZM9.21806 8.67321C8.70346 8.45493 7.6777 8.12302 6.21624 8.12302C4.75479 8.12302 3.72903 8.45493 3.21443 8.67321L1.87262 4.56373L3.80536 5.52731C3.92235 5.585 4.0567 5.59679 4.18195 5.56036C4.3072 5.52393 4.41426 5.44192 4.48206 5.33048L6.21624 2.44788L7.95043 5.32962C8.01822 5.44095 8.1252 5.52289 8.25036 5.55932C8.37551 5.59574 8.50976 5.58402 8.6267 5.52645L10.5599 4.56373L9.21806 8.67321Z" fill="#00A04A" />
                                            </svg>