<svg width="30" height="24" viewBox="0 0 30 24" fill="none" xmlns="http://www.w3.org/2000/svg">
            <path d="M7.64019 7.76878L2.56269 12L7.64019 16.2313C7.74399 16.3144 7.83018 16.4174 7.89372 16.5342C7.95725 16.651 7.99685 16.7793 8.01019 16.9116C8.02354 17.0439 8.01037 17.1775 7.97144 17.3047C7.93252 17.4318 7.86863 17.5499 7.78352 17.6521C7.6984 17.7542 7.59376 17.8384 7.47573 17.8996C7.35769 17.9609 7.22863 17.9979 7.0961 18.0087C6.96356 18.0194 6.83021 18.0036 6.70385 17.9622C6.57749 17.9208 6.46066 17.8546 6.36019 17.7675L0.360188 12.7675C0.247604 12.6737 0.157026 12.5562 0.094867 12.4235C0.0327082 12.2908 0.000488281 12.146 0.000488281 11.9994C0.000488281 11.8528 0.0327082 11.7081 0.094867 11.5753C0.157026 11.4426 0.247604 11.3251 0.360188 11.2313L6.36019 6.23128C6.56407 6.06154 6.82704 5.97975 7.09123 6.0039C7.35542 6.02804 7.5992 6.15615 7.76894 6.36003C7.93868 6.56392 8.02047 6.82688 7.99633 7.09107C7.97218 7.35527 7.84407 7.59905 7.64019 7.76878ZM29.6402 11.2313L23.6402 6.23128C23.5392 6.14724 23.4227 6.0839 23.2973 6.04488C23.1719 6.00587 23.04 5.99194 22.9091 6.0039C22.7783 6.01585 22.6512 6.05346 22.5349 6.11456C22.4186 6.17567 22.3155 6.25908 22.2314 6.36003C22.0617 6.56392 21.9799 6.82688 22.0041 7.09107C22.0282 7.35527 22.1563 7.59905 22.3602 7.76878L27.4377 12L22.3602 16.2313C22.2564 16.3144 22.1702 16.4174 22.1067 16.5342C22.0431 16.651 22.0035 16.7793 21.9902 16.9116C21.9768 17.0439 21.99 17.1775 22.0289 17.3047C22.0679 17.4318 22.1317 17.5499 22.2169 17.6521C22.302 17.7542 22.4066 17.8384 22.5247 17.8996C22.6427 17.9609 22.7717 17.9979 22.9043 18.0087C23.0368 18.0194 23.1702 18.0036 23.2965 17.9622C23.4229 17.9208 23.5397 17.8546 23.6402 17.7675L29.6402 12.7675C29.7528 12.6737 29.8434 12.5562 29.9055 12.4235C29.9677 12.2908 29.9999 12.146 29.9999 11.9994C29.9999 11.8528 29.9677 11.7081 29.9055 11.5753C29.8434 11.4426 29.7528 11.3251 29.6402 11.2313ZM19.3414 0.0600331C19.218 0.015216 19.0869 -0.00484767 18.9557 0.000987745C18.8245 0.00682316 18.6958 0.0384435 18.5768 0.094043C18.4578 0.149642 18.351 0.228132 18.2623 0.325031C18.1737 0.421929 18.105 0.535339 18.0602 0.658783L10.0602 22.6588C10.0152 22.7823 9.99497 22.9135 10.0007 23.0448C10.0064 23.1762 10.038 23.3051 10.0936 23.4242C10.1492 23.5433 10.2278 23.6503 10.3248 23.739C10.4218 23.8277 10.5353 23.8965 10.6589 23.9413C10.7685 23.9802 10.8839 24.0001 11.0002 24C11.2056 24 11.4059 23.9368 11.5741 23.819C11.7423 23.7011 11.8701 23.5343 11.9402 23.3413L19.9402 1.34128C19.985 1.21784 20.0051 1.08678 19.9992 0.955583C19.9934 0.824387 19.9618 0.695624 19.9062 0.576649C19.8506 0.457673 19.7721 0.350813 19.6752 0.262172C19.5783 0.173531 19.4649 0.104844 19.3414 0.0600331Z" fill="black" />
        </svg>