<svg width="24" height="24" viewBox="0 0 24 24" fill="none" xmlns="http://www.w3.org/2000/svg">
            <path d="M4.29231 9.70757L0.29231 5.70757C0.199334 5.6147 0.125574 5.50441 0.0752501 5.38301C0.0249259 5.26161 -0.000976562 5.13148 -0.000976562 5.00007C-0.000976562 4.86865 0.0249259 4.73853 0.0752501 4.61713C0.125574 4.49573 0.199334 4.38544 0.29231 4.29257L4.29231 0.292568C4.47995 0.104927 4.73445 -0.000488283 4.99981 -0.000488281C5.26517 -0.000488279 5.51967 0.104927 5.70731 0.292568C5.89495 0.480208 6.00037 0.734704 6.00037 1.00007C6.00037 1.26543 5.89495 1.51993 5.70731 1.70757L2.41356 5.00007L5.70731 8.29257C5.89495 8.48021 6.00037 8.7347 6.00037 9.00007C6.00037 9.26543 5.89495 9.51993 5.70731 9.70757C5.51967 9.89521 5.26517 10.0006 4.99981 10.0006C4.73445 10.0006 4.47995 9.89521 4.29231 9.70757ZM9.29231 9.70757C9.38518 9.80054 9.49547 9.8743 9.61687 9.92463C9.73827 9.97495 9.86839 10.0009 9.99981 10.0009C10.1312 10.0009 10.2614 9.97495 10.3828 9.92463C10.5041 9.8743 10.6144 9.80054 10.7073 9.70757L14.7073 5.70757C14.8003 5.6147 14.874 5.50441 14.9244 5.38301C14.9747 5.26161 15.0006 5.13148 15.0006 5.00007C15.0006 4.86865 14.9747 4.73853 14.9244 4.61713C14.874 4.49573 14.8003 4.38544 14.7073 4.29257L10.7073 0.292568C10.5197 0.104927 10.2652 -0.000488281 9.99981 -0.000488281C9.73445 -0.000488281 9.47995 0.104927 9.29231 0.292568C9.10467 0.480208 8.99925 0.734704 8.99925 1.00007C8.99925 1.26543 9.10467 1.51993 9.29231 1.70757L12.5861 5.00007L9.29231 8.29257C9.19933 8.38544 9.12558 8.49573 9.07525 8.61713C9.02493 8.73853 8.99902 8.86865 8.99902 9.00007C8.99902 9.13148 9.02493 9.26161 9.07525 9.38301C9.12558 9.50441 9.19933 9.6147 9.29231 9.70757ZM21.9998 2.00007H18.9998C18.7346 2.00007 18.4802 2.10542 18.2927 2.29296C18.1052 2.4805 17.9998 2.73485 17.9998 3.00007C17.9998 3.26528 18.1052 3.51964 18.2927 3.70717C18.4802 3.89471 18.7346 4.00007 18.9998 4.00007H21.9998V22.0001H3.99981V14.0001C3.99981 13.7349 3.89445 13.4805 3.70692 13.293C3.51938 13.1054 3.26503 13.0001 2.99981 13.0001C2.73459 13.0001 2.48024 13.1054 2.2927 13.293C2.10517 13.4805 1.99981 13.7349 1.99981 14.0001V22.0001C1.99981 22.5305 2.21052 23.0392 2.5856 23.4143C2.96067 23.7894 3.46938 24.0001 3.99981 24.0001H21.9998C22.5302 24.0001 23.0389 23.7894 23.414 23.4143C23.7891 23.0392 23.9998 22.5305 23.9998 22.0001V4.00007C23.9998 3.46963 23.7891 2.96093 23.414 2.58585C23.0389 2.21078 22.5302 2.00007 21.9998 2.00007Z" fill="black" />
        </svg>