<svg width="10" height="10" viewBox="0 0 10 10" fill="none" xmlns="http://www.w3.org/2000/svg">
                                                <path d="M9.56434 6.43977C9.51543 6.40891 9.45951 6.39093 9.40178 6.38748C9.34405 6.38403 9.28638 6.39523 9.23414 6.42004C9.10342 6.48186 8.95919 6.50963 8.81486 6.50076C8.67053 6.49189 8.53078 6.44667 8.40861 6.36931C8.28644 6.29194 8.18582 6.18495 8.11609 6.05826C8.04637 5.93158 8.00981 5.78932 8.00981 5.64472C8.00981 5.50011 8.04637 5.35786 8.11609 5.23117C8.18582 5.10449 8.28644 4.99749 8.40861 4.92012C8.53078 4.84276 8.67053 4.79754 8.81486 4.78867C8.95919 4.7798 9.10342 4.80757 9.23414 4.86939C9.28644 4.89421 9.34417 4.90539 9.40196 4.9019C9.45974 4.8984 9.5157 4.88034 9.56463 4.84939C9.61355 4.81844 9.65385 4.77562 9.68177 4.7249C9.70968 4.67419 9.72432 4.61724 9.7243 4.55935V2.72867C9.7243 2.5467 9.65201 2.37218 9.52333 2.24351C9.39466 2.11483 9.22014 2.04254 9.03817 2.04254L7.48495 2.04254C7.49133 1.98559 7.49448 1.92832 7.49438 1.87101C7.49407 1.66017 7.4507 1.45161 7.36693 1.25811C7.28316 1.06462 7.16076 0.890276 7.00723 0.745761C6.79464 0.546102 6.52985 0.410745 6.24352 0.355362C5.95718 0.29998 5.66101 0.326838 5.38931 0.432826C5.11761 0.538815 4.88149 0.719598 4.70829 0.954241C4.53509 1.18888 4.4319 1.46779 4.41066 1.75866C4.40407 1.85327 4.40608 1.94829 4.41667 2.04254H2.86301C2.68104 2.04254 2.50652 2.11483 2.37785 2.24351C2.24917 2.37218 2.17689 2.5467 2.17689 2.72867V4.11036C2.11993 4.10398 2.06266 4.10083 2.00535 4.10093C1.79451 4.10127 1.58596 4.14465 1.39247 4.22842C1.19898 4.31218 1.02463 4.43457 0.880104 4.58808C0.734537 4.74184 0.622449 4.92413 0.550925 5.12343C0.479401 5.32272 0.449995 5.53468 0.464567 5.74592C0.489151 6.11788 0.647196 6.46845 0.909637 6.73318C1.17208 6.99791 1.52127 7.15898 1.893 7.18679C1.98761 7.19359 2.08265 7.19158 2.17689 7.18079L2.17689 8.56076C2.17689 8.74273 2.24917 8.91725 2.37785 9.04593C2.50652 9.1746 2.68104 9.24689 2.86301 9.24689H9.03817C9.22014 9.24689 9.39466 9.1746 9.52333 9.04593C9.65201 8.91725 9.7243 8.74273 9.7243 8.56076V6.73009C9.72433 6.67212 9.70968 6.61509 9.68171 6.56433C9.65374 6.51356 9.61336 6.47071 9.56434 6.43977ZM9.03817 8.56076H2.86301V6.73009C2.86303 6.6722 2.8484 6.61524 2.82048 6.56453C2.79257 6.51381 2.75227 6.47099 2.70334 6.44004C2.65442 6.4091 2.59846 6.39103 2.54068 6.38754C2.48289 6.38404 2.42516 6.39522 2.37286 6.42004C2.24214 6.48186 2.09791 6.50963 1.95358 6.50076C1.80924 6.49189 1.6695 6.44667 1.54733 6.36931C1.42516 6.29194 1.32454 6.18495 1.25481 6.05826C1.18509 5.93158 1.14852 5.78932 1.14852 5.64472C1.14852 5.50011 1.18509 5.35786 1.25481 5.23117C1.32454 5.10449 1.42516 4.99749 1.54733 4.92012C1.6695 4.84276 1.80924 4.79754 1.95358 4.78867C2.09791 4.7798 2.24214 4.80757 2.37286 4.86939C2.42516 4.89421 2.48289 4.90539 2.54068 4.9019C2.59846 4.8984 2.65442 4.88034 2.70334 4.84939C2.75227 4.81844 2.79257 4.77562 2.82048 4.7249C2.8484 4.67419 2.86303 4.61724 2.86301 4.55935V2.72867H4.86522C4.92311 2.72869 4.98007 2.71406 5.03078 2.68614C5.08149 2.65822 5.12432 2.61793 5.15526 2.569C5.18621 2.52008 5.20427 2.46412 5.20777 2.40633C5.21127 2.34855 5.20009 2.29082 5.17527 2.23852C5.11344 2.1078 5.08568 1.96356 5.09455 1.81923C5.10342 1.6749 5.14864 1.53515 5.226 1.41299C5.30336 1.29082 5.41036 1.19019 5.53705 1.12047C5.66373 1.05074 5.80599 1.01418 5.95059 1.01418C6.0952 1.01418 6.23745 1.05074 6.36414 1.12047C6.49082 1.19019 6.59782 1.29082 6.67518 1.41299C6.75255 1.53515 6.79777 1.6749 6.80664 1.81923C6.81551 1.96356 6.78774 2.1078 6.72592 2.23852C6.7011 2.29082 6.68991 2.34855 6.69341 2.40633C6.69691 2.46412 6.71497 2.52008 6.74592 2.569C6.77687 2.61793 6.81969 2.65822 6.8704 2.68614C6.92112 2.71406 6.97807 2.72869 7.03596 2.72867H9.03817V4.11079C8.94393 4.09999 8.84889 4.09798 8.75428 4.10479C8.35501 4.13306 7.98232 4.31531 7.71483 4.6131C7.44735 4.91088 7.30599 5.30092 7.32056 5.70093C7.33514 6.10094 7.50451 6.47966 7.79295 6.75719C8.0814 7.03472 8.46636 7.18936 8.86664 7.18851C8.92395 7.1886 8.98122 7.18545 9.03817 7.17907V8.56076Z" fill="#FB3710" />
                                            </svg>