<svg width="11" height="9" viewBox="0 0 11 9" fill="none" xmlns="http://www.w3.org/2000/svg">
                                                <path d="M10.5077 0.979884C10.5028 0.895956 10.4673 0.816749 10.4078 0.757301C10.3484 0.697854 10.2692 0.662305 10.1853 0.657404C7.96563 0.528755 6.18341 1.20373 5.41752 2.46792C4.9115 3.30371 4.91236 4.31876 5.41066 5.28705C5.12703 5.6247 4.91975 6.01967 4.80301 6.4449L4.1053 5.74462C4.44065 5.04434 4.42778 4.31447 4.06242 3.7081C3.49636 2.77368 2.18972 2.27281 0.567454 2.36801C0.483526 2.37291 0.404319 2.40846 0.344872 2.4679C0.285424 2.52735 0.249875 2.60656 0.244974 2.69049C0.149345 4.31275 0.650647 5.6194 1.58507 6.18545C1.89343 6.37385 2.24776 6.47356 2.60911 6.47363C2.95985 6.46931 3.30514 6.38621 3.61944 6.23048L4.69151 7.30256V8.53201C4.69151 8.623 4.72766 8.71026 4.792 8.7746C4.85633 8.83893 4.94359 8.87508 5.03458 8.87508C5.12556 8.87508 5.21282 8.83893 5.27716 8.7746C5.3415 8.71026 5.37764 8.623 5.37764 8.53201V7.26739C5.37612 6.72162 5.56184 6.19184 5.90382 5.76649C6.34506 5.99708 6.83442 6.12049 7.33225 6.1267C7.81356 6.12826 8.28593 5.99677 8.69722 5.74676C9.96141 4.98173 10.6381 3.19951 10.5077 0.979884ZM1.93885 5.59881C1.28103 5.20043 0.908803 4.25743 0.917808 3.04299C2.13226 3.03269 3.07525 3.4062 3.47364 4.06403C3.68162 4.40709 3.7155 4.80719 3.57913 5.2193L2.53235 4.17252C2.46749 4.1109 2.38113 4.07706 2.29167 4.0782C2.20221 4.07935 2.11674 4.11539 2.05348 4.17866C1.99022 4.24192 1.95417 4.32739 1.95303 4.41685C1.95188 4.5063 1.98573 4.59267 2.04735 4.65753L3.09412 5.70431C2.68202 5.84067 2.28235 5.8068 1.93885 5.59881ZM8.34172 5.16055C7.76708 5.50833 7.09168 5.53492 6.40555 5.24632L8.70794 2.9435C8.76956 2.87864 8.8034 2.79227 8.80226 2.70281C8.80111 2.61335 8.76507 2.52788 8.70181 2.46462C8.63854 2.40136 8.55307 2.36531 8.46361 2.36417C8.37416 2.36302 8.28779 2.39687 8.22293 2.45849L5.92011 4.75831C5.63022 4.07218 5.65638 3.39634 6.00588 2.82214C6.60367 1.83583 8.02138 1.28607 9.83662 1.32852C9.87779 3.14333 9.32888 4.56276 8.34172 5.16055Z" fill="#343330" />
                                            </svg>