 <svg width="9" height="11" viewBox="0 0 9 11" fill="none" xmlns="http://www.w3.org/2000/svg">
                                                <path d="M5.67795 9.80953C5.67795 9.90052 5.64181 9.98778 5.57747 10.0521C5.51314 10.1165 5.42588 10.1526 5.33489 10.1526H3.96263C3.87165 10.1526 3.78439 10.1165 3.72005 10.0521C3.65571 9.98778 3.61957 9.90052 3.61957 9.80953C3.61957 9.71854 3.65571 9.63128 3.72005 9.56695C3.78439 9.50261 3.87165 9.46647 3.96263 9.46647H5.33489C5.42588 9.46647 5.51314 9.50261 5.57747 9.56695C5.64181 9.63128 5.67795 9.71854 5.67795 9.80953ZM4.64876 5.00663C4.75054 5.00663 4.85003 4.97645 4.93466 4.91991C5.01928 4.86336 5.08524 4.78299 5.12419 4.68896C5.16313 4.59493 5.17333 4.49147 5.15347 4.39164C5.13361 4.29182 5.0846 4.20013 5.01264 4.12816C4.94067 4.05619 4.84898 4.00718 4.74915 3.98733C4.64933 3.96747 4.54586 3.97766 4.45183 4.01661C4.3578 4.05556 4.27743 4.12152 4.22089 4.20614C4.16435 4.29077 4.13417 4.39026 4.13417 4.49204C4.13417 4.62852 4.18838 4.75941 4.28489 4.85591C4.38139 4.95242 4.51228 5.00663 4.64876 5.00663ZM8.74924 6.8862L8.2192 9.27178C8.19405 9.38506 8.14059 9.49012 8.0638 9.57712C7.98701 9.66413 7.88941 9.73023 7.78013 9.76926C7.67085 9.80828 7.55345 9.81896 7.43892 9.80028C7.32439 9.7816 7.21647 9.73417 7.12526 9.66244L5.95712 8.78034H3.34126L2.17227 9.66244C2.08105 9.73417 1.97313 9.7816 1.8586 9.80028C1.74407 9.81896 1.62668 9.80828 1.51739 9.76926C1.40811 9.73023 1.31051 9.66413 1.23372 9.57712C1.15693 9.49012 1.10347 9.38506 1.07832 9.27178L0.548287 6.8862C0.525804 6.78382 0.52694 6.67767 0.551609 6.5758C0.576278 6.47393 0.623831 6.37902 0.690659 6.29827L1.9154 4.8291C1.9565 4.28917 2.08046 3.75879 2.28291 3.25658C2.8361 1.86974 3.82669 0.999644 4.22851 0.690029C4.34878 0.596837 4.49661 0.546265 4.64876 0.546265C4.80091 0.546265 4.94875 0.596837 5.06901 0.690029C5.46954 0.999644 6.46143 1.86974 7.01462 3.25658C7.21706 3.75879 7.34102 4.28917 7.38212 4.8291L8.60686 6.29827C8.67369 6.37902 8.72124 6.47393 8.74591 6.5758C8.77058 6.67767 8.77172 6.78382 8.74924 6.8862ZM3.42359 8.09421H5.87393C6.77962 6.48438 6.94901 4.94317 6.37738 3.51087C5.87307 2.24668 4.92707 1.44734 4.64876 1.23293C4.36959 1.44734 3.42359 2.24668 2.91929 3.51087C2.34852 4.94317 2.5179 6.48438 3.42359 8.09421ZM2.78035 8.34508C2.31864 7.506 2.03847 6.68136 1.93984 5.87116L1.21812 6.73739L1.74815 9.1234L1.75587 9.11783L2.78035 8.34508ZM8.0794 6.73739L7.35768 5.87116C7.25991 6.67964 6.98031 7.50428 6.51889 8.34508L7.54165 9.11697L7.54937 9.12254L8.0794 6.73739Z" fill="#641CFF" />
                                            </svg>