<svg width="12" height="8" viewBox="0 0 12 8" fill="none" xmlns="http://www.w3.org/2000/svg">
                                                <path d="M5.51158 7.6734C5.49303 7.74762 5.4502 7.81351 5.38991 7.86059C5.32961 7.90768 5.25531 7.93326 5.17881 7.93327C5.1499 7.93341 5.12109 7.92995 5.09304 7.92298L3.72079 7.57992C3.68258 7.57032 3.64632 7.55422 3.61358 7.53232L2.58439 6.84619C2.5087 6.79569 2.45617 6.7172 2.43836 6.62797C2.42054 6.53874 2.4389 6.44609 2.4894 6.3704C2.5399 6.29471 2.6184 6.24218 2.70762 6.22437C2.79685 6.20656 2.8895 6.22492 2.96519 6.27542L3.94464 6.92853L5.25943 7.25744C5.30336 7.26809 5.34475 7.28731 5.38123 7.31401C5.4177 7.34071 5.44854 7.37435 5.47197 7.41301C5.4954 7.45166 5.51096 7.49456 5.51776 7.53925C5.52456 7.58394 5.52246 7.62953 5.51158 7.6734ZM11.2017 3.53691C11.1736 3.62241 11.1288 3.70148 11.0699 3.76957C11.011 3.83765 10.9392 3.89339 10.8587 3.93358L9.8432 4.44131L7.4812 6.80374C7.43928 6.84561 7.38722 6.87592 7.33011 6.8917C7.27299 6.90748 7.21276 6.9082 7.15529 6.89379L4.41077 6.20766C4.36904 6.19718 4.32962 6.179 4.29456 6.15406L1.9137 4.45418L0.872497 3.93358C0.709771 3.85223 0.586013 3.70959 0.528435 3.53701C0.470857 3.36444 0.484173 3.17606 0.565455 3.01331L1.6311 0.882449C1.71244 0.719723 1.85509 0.595965 2.02766 0.538387C2.20023 0.480809 2.38861 0.494125 2.55137 0.575406L3.49737 1.04712L5.77017 0.397871C5.83183 0.380235 5.89719 0.380235 5.95885 0.397871L8.23165 1.04712L9.17765 0.575406C9.34041 0.494125 9.52878 0.480809 9.70136 0.538387C9.87393 0.595965 10.0166 0.719723 10.0979 0.882449L11.1636 3.01331C11.2042 3.09373 11.2285 3.18141 11.2351 3.27129C11.2416 3.36116 11.2303 3.45144 11.2017 3.53691ZM9.22139 4.09181L8.05454 1.75812H6.69001L4.83575 3.55921C5.37864 3.90613 6.22987 4.00176 6.99362 3.23201C7.05327 3.17189 7.13305 3.13595 7.2176 3.13112C7.30215 3.12629 7.3855 3.15291 7.45161 3.20585L8.92721 4.38814L9.22139 4.09181ZM1.17911 3.31992L1.93771 3.69943L3.00335 1.56858L2.24475 1.18906L1.17911 3.31992ZM8.43792 4.874L7.24963 3.92243C6.4117 4.60855 5.34777 4.69904 4.46609 4.13684C4.37937 4.08167 4.30614 4.00772 4.25183 3.92046C4.19752 3.83319 4.16351 3.73483 4.15231 3.63266C4.14111 3.53048 4.15301 3.4271 4.18714 3.33014C4.22126 3.23318 4.27673 3.14513 4.34945 3.07248C4.35049 3.07124 4.35163 3.07009 4.35288 3.06905L6.27661 1.20321L5.86494 1.08571L3.70278 1.70366L2.52907 4.05065L4.63891 5.55798L7.13213 6.18107L8.43792 4.874ZM10.5495 3.31992L9.48512 1.18906L8.72652 1.56858L9.79216 3.69943L10.5495 3.31992Z" fill="#FF8A00" />
                                            </svg>