<svg width="26" height="24" viewBox="0 0 26 24" fill="none" xmlns="http://www.w3.org/2000/svg">
<path d="M12.1273 0.743875C12.4055 -0.112402 13.6169 -0.112404 13.8951 0.743873L16.1412 7.65655C16.2656 8.03949 16.6225 8.29876 17.0251 8.29876H24.2935C25.1939 8.29876 25.5682 9.45088 24.8398 9.98008L18.9596 14.2524C18.6338 14.489 18.4975 14.9085 18.6219 15.2915L20.868 22.2041C21.1462 23.0604 20.1662 23.7725 19.4378 23.2433L13.5575 18.971C13.2318 18.7343 12.7907 18.7343 12.4649 18.971L6.58464 23.2433C5.85625 23.7725 4.8762 23.0604 5.15442 22.2041L7.40049 15.2915C7.52491 14.9085 7.38861 14.489 7.06286 14.2524L1.18259 9.98008C0.454193 9.45088 0.828536 8.29876 1.72888 8.29876H8.9973C9.39995 8.29876 9.7568 8.03949 9.88122 7.65655L12.1273 0.743875Z" fill="#F87239"/>
</svg>
