<svg width="27" height="27" viewBox="0 0 27 27" fill="none" xmlns="http://www.w3.org/2000/svg">
<path d="M27 10.5859C27.0008 10.3232 26.9494 10.0629 26.8488 9.82022C26.7481 9.57752 26.6003 9.35724 26.4137 9.1722L17.8287 0.585948C17.643 0.400182 17.4225 0.252823 17.1798 0.152285C16.9372 0.0517467 16.677 0 16.4144 0C16.1517 0 15.8916 0.0517467 15.6489 0.152285C15.4062 0.252823 15.1857 0.400182 15 0.585948L11.4462 4.1397L4.19624 6.86095C3.86674 6.98383 3.57531 7.19111 3.3511 7.46204C3.1269 7.73296 2.97781 8.05803 2.91874 8.4047L0.013737 25.8359C-0.0102342 25.9792 -0.00269642 26.126 0.035826 26.2661C0.0743485 26.4062 0.14293 26.5362 0.2368 26.6471C0.330669 26.758 0.447571 26.8471 0.579372 26.9082C0.711173 26.9693 0.854707 27.0009 0.999987 27.0009C1.05526 27.0007 1.11043 26.9961 1.16499 26.9872L18.595 24.0822C18.9412 24.0244 19.2662 23.8765 19.5372 23.6534C19.8081 23.4302 20.0156 23.1397 20.1387 22.8109L22.86 15.5609L26.4137 12.0009C26.6004 11.8157 26.7483 11.5952 26.8489 11.3523C26.9496 11.1094 27.0009 10.8489 27 10.5859ZM18.2662 22.1097L3.91499 24.5009L9.83624 18.5797C10.5758 18.9794 11.4345 19.0995 12.2554 18.9182C13.0762 18.7368 13.8044 18.2661 14.3067 17.592C14.8091 16.918 15.052 16.0856 14.9911 15.2472C14.9303 14.4087 14.5696 13.6202 13.9752 13.0257C13.3808 12.4313 12.5922 12.0707 11.7538 12.0098C10.9153 11.9489 10.083 12.1919 9.40891 12.6942C8.73484 13.1965 8.2641 13.9247 8.08274 14.7456C7.90139 15.5664 8.02154 16.4251 8.42124 17.1647L2.49999 23.0884L4.89124 8.73345L11.75 6.1622L20.8375 15.2509L18.2662 22.1097ZM9.99999 15.5009C9.99999 15.2043 10.088 14.9143 10.2528 14.6676C10.4176 14.4209 10.6519 14.2287 10.926 14.1151C11.2001 14.0016 11.5017 13.9719 11.7926 14.0298C12.0836 14.0876 12.3509 14.2305 12.5606 14.4403C12.7704 14.6501 12.9133 14.9173 12.9712 15.2083C13.029 15.4993 12.9993 15.8009 12.8858 16.075C12.7723 16.3491 12.58 16.5833 12.3333 16.7482C12.0867 16.913 11.7967 17.0009 11.5 17.0009C11.1022 17.0009 10.7206 16.8429 10.4393 16.5616C10.158 16.2803 9.99999 15.8988 9.99999 15.5009ZM22 13.5859L13.4137 5.00095L16.4137 2.00095L25 10.5859L22 13.5859Z" fill="black"/>
</svg>
