<svg width="30" height="24" viewBox="0 0 30 24" fill="none" xmlns="http://www.w3.org/2000/svg">
<path d="M7.64001 7.76878L2.56251 12L7.64001 16.2313C7.74381 16.3144 7.83 16.4173 7.89353 16.5342C7.95707 16.651 7.99666 16.7793 8.01001 16.9116C8.02336 17.0439 8.01018 17.1775 7.97126 17.3047C7.93234 17.4318 7.86845 17.5499 7.78333 17.6521C7.69821 17.7542 7.59358 17.8384 7.47554 17.8996C7.35751 17.9609 7.22845 17.9979 7.09591 18.0087C6.96338 18.0194 6.83003 18.0036 6.70367 17.9622C6.57731 17.9208 6.46048 17.8546 6.36001 17.7675L0.360005 12.7675C0.247421 12.6737 0.156843 12.5562 0.0946839 12.4235C0.0325251 12.2908 0.000305176 12.146 0.000305176 11.9994C0.000305176 11.8528 0.0325251 11.7081 0.0946839 11.5753C0.156843 11.4426 0.247421 11.3251 0.360005 11.2313L6.36001 6.23128C6.56389 6.06154 6.82685 5.97975 7.09104 6.0039C7.35524 6.02804 7.59902 6.15615 7.76876 6.36003C7.93849 6.56392 8.02029 6.82688 7.99614 7.09107C7.972 7.35526 7.84389 7.59904 7.64001 7.76878ZM29.64 11.2313L23.64 6.23128C23.5391 6.14724 23.4225 6.0839 23.2971 6.04488C23.1717 6.00587 23.0398 5.99194 22.909 6.0039C22.7782 6.01585 22.651 6.05346 22.5347 6.11456C22.4184 6.17567 22.3153 6.25908 22.2313 6.36003C22.0615 6.56392 21.9797 6.82688 22.0039 7.09107C22.028 7.35526 22.1561 7.59904 22.36 7.76878L27.4375 12L22.36 16.2313C22.2562 16.3144 22.17 16.4173 22.1065 16.5342C22.0429 16.651 22.0033 16.7793 21.99 16.9116C21.9767 17.0439 21.9898 17.1775 22.0287 17.3047C22.0677 17.4318 22.1316 17.5499 22.2167 17.6521C22.3018 17.7542 22.4064 17.8384 22.5245 17.8996C22.6425 17.9609 22.7716 17.9979 22.9041 18.0087C23.0366 18.0194 23.17 18.0036 23.2963 17.9622C23.4227 17.9208 23.5395 17.8546 23.64 17.7675L29.64 12.7675C29.7526 12.6737 29.8432 12.5562 29.9053 12.4235C29.9675 12.2908 29.9997 12.146 29.9997 11.9994C29.9997 11.8528 29.9675 11.7081 29.9053 11.5753C29.8432 11.4426 29.7526 11.3251 29.64 11.2313ZM19.3413 0.0600331C19.2178 0.015216 19.0868 -0.00484767 18.9556 0.000987744C18.8244 0.00682316 18.6956 0.0384435 18.5766 0.094043C18.4576 0.149642 18.3508 0.228132 18.2621 0.325031C18.1735 0.421929 18.1048 0.535339 18.06 0.658783L10.06 22.6588C10.015 22.7823 9.99478 22.9135 10.0005 23.0448C10.0063 23.1761 10.0378 23.3051 10.0935 23.4242C10.1491 23.5433 10.2276 23.6503 10.3246 23.739C10.4216 23.8277 10.5352 23.8965 10.6588 23.9413C10.7683 23.9802 10.8837 24.0001 11 24C11.2054 24 11.4058 23.9368 11.5739 23.819C11.7421 23.7011 11.8699 23.5343 11.94 23.3413L19.94 1.34128C19.9848 1.21784 20.0049 1.08678 19.9991 0.955583C19.9932 0.824387 19.9616 0.695624 19.906 0.576648C19.8504 0.457673 19.7719 0.350813 19.675 0.262172C19.5781 0.173531 19.4647 0.104844 19.3413 0.0600331Z" fill="black"/>
</svg>
