<svg width="25" height="25" viewBox="0 0 25 25" fill="none" xmlns="http://www.w3.org/2000/svg">
<path d="M24.9812 1.88952C24.9516 1.40193 24.7446 0.942044 24.3991 0.596628C24.0537 0.251212 23.5938 0.0441555 23.1062 0.0145243C21.5337 -0.0792257 17.515 0.0645242 14.18 3.39827L13.5862 3.99952H6.29499C6.03134 3.99804 5.77002 4.04899 5.52624 4.14942C5.28246 4.24985 5.06108 4.39776 4.87499 4.58452L0.587488 8.87452C0.324548 9.13729 0.140041 9.46813 0.0546742 9.82992C-0.0306928 10.1917 -0.0135414 10.5701 0.104204 10.9227C0.221949 11.2753 0.435628 11.5881 0.72126 11.826C1.00689 12.0639 1.35317 12.2175 1.72124 12.2695L6.52999 12.9408L12.0562 18.467L12.7275 23.2783C12.7791 23.6464 12.9327 23.9927 13.1708 24.2781C13.4089 24.5635 13.7221 24.7766 14.075 24.8933C14.2805 24.9619 14.4958 24.997 14.7125 24.997C14.9749 24.9975 15.2348 24.9461 15.4772 24.8457C15.7196 24.7453 15.9398 24.5979 16.125 24.412L20.415 20.1245C20.6018 19.9384 20.7497 19.7171 20.8501 19.4733C20.9505 19.2295 21.0015 18.9682 21 18.7045V11.4133L21.5962 10.817C24.9312 7.48202 25.075 3.46327 24.9812 1.88952ZM6.29499 5.99952H11.5862L6.64499 10.9395L1.99999 10.292L6.29499 5.99952ZM15.5962 4.81827C16.5571 3.85145 17.7133 3.10078 18.9875 2.61642C20.2616 2.13206 21.6245 1.92516 22.985 2.00952C23.0726 3.37075 22.8679 4.73496 22.3845 6.01048C21.9011 7.286 21.1503 8.44327 20.1825 9.40452L13 16.5845L8.41499 11.9995L15.5962 4.81827ZM19 18.7045L14.7087 22.9995L14.06 18.3533L19 13.4133V18.7045ZM9.72999 19.892C9.16749 21.1245 7.28624 23.9995 1.99999 23.9995C1.73477 23.9995 1.48042 23.8942 1.29288 23.7066C1.10535 23.5191 0.999988 23.2647 0.999988 22.9995C0.999988 17.7133 3.87499 15.832 5.10749 15.2683C5.22699 15.2138 5.35606 15.1833 5.48732 15.1787C5.61858 15.1741 5.74947 15.1954 5.87251 15.2414C5.99554 15.2873 6.10832 15.3571 6.2044 15.4466C6.30049 15.5362 6.37799 15.6438 6.43249 15.7633C6.48699 15.8828 6.51741 16.0118 6.52203 16.1431C6.52665 16.2744 6.50537 16.4053 6.4594 16.5283C6.41344 16.6513 6.34369 16.7641 6.25414 16.8602C6.16459 16.9563 6.05699 17.0338 5.93749 17.0883C5.13374 17.4545 3.35999 18.6333 3.04749 21.952C6.36624 21.6395 7.54749 19.8658 7.91124 19.062C7.96574 18.9425 8.04324 18.8349 8.13932 18.7454C8.2354 18.6558 8.34818 18.5861 8.47122 18.5401C8.59426 18.4941 8.72514 18.4729 8.85641 18.4775C8.98767 18.4821 9.11674 18.5125 9.23624 18.567C9.35574 18.6215 9.46334 18.699 9.55289 18.7951C9.64244 18.8912 9.71219 19.004 9.75815 19.127C9.80412 19.25 9.8254 19.3809 9.82078 19.5122C9.81616 19.6435 9.78574 19.7725 9.73124 19.892H9.72999Z" fill="black"/>
</svg>
